<svg xmlns="http://www.w3.org/2000/svg" width="3096" height="567" fill="none"><mask id="a" width="512" height="512" x="0" y="55" maskUnits="userSpaceOnUse" style="mask-type:alpha"><circle cx="256" cy="311" r="256" fill="#3C3"/></mask><g mask="url(#a)"><circle cx="256" cy="311" r="256" fill="#15803D"/><path fill="#fff" d="M88 313c0-55.228 44.772-100 100-100h100v369H88V313z"/><path fill="#fff" d="M218 213h125c55.228 0 100 44.772 100 100s-44.772 100-100 100H218V213z"/><circle cx="339" cy="313" r="75" fill="#15803D"/><path fill="#15803D" d="m256.478 377.112 12.879-37.603 26.712 34.08-39.591 3.523z"/><circle cx="310" cy="316" r="10" fill="#fff"/><circle cx="343" cy="316" r="10" fill="#fff"/><circle cx="376" cy="316" r="10" fill="#fff"/></g><path fill="#FCFCFC" d="M699.84 209.08c8-12.48 19.04-22.56 33.12-30.24 14.08-7.68 30.56-11.52 49.44-11.52 22.08 0 42.08 5.6 60 16.8 17.92 11.2 32 27.2 42.24 48 10.56 20.8 15.84 44.96 15.84 72.48 0 27.52-5.28 51.84-15.84 72.96-10.24 20.8-24.32 36.96-42.24 48.48-17.92 11.2-37.92 16.8-60 16.8-18.56 0-35.04-3.84-49.44-11.52-14.08-7.68-25.12-17.6-33.12-29.76v165.12h-82.08V171.16h82.08v37.92zm117.12 95.52c0-20.48-5.76-36.48-17.28-48-11.2-11.84-25.12-17.76-41.76-17.76-16.32 0-30.24 5.92-41.76 17.76-11.2 11.84-16.8 28-16.8 48.48 0 20.48 5.6 36.64 16.8 48.48 11.52 11.84 25.44 17.76 41.76 17.76 16.32 0 30.24-5.92 41.76-17.76 11.52-12.16 17.28-28.48 17.28-48.96zm379.06-3.84c0 7.68-.48 15.68-1.44 24h-185.76c1.28 16.64 6.56 29.44 15.84 38.4 9.6 8.64 21.28 12.96 35.04 12.96 20.48 0 34.72-8.64 42.72-25.92h87.36c-4.48 17.6-12.64 33.44-24.48 47.52-11.52 14.08-26.08 25.12-43.68 33.12-17.6 8-37.28 12-59.04 12-26.24 0-49.6-5.6-70.079-16.8-20.48-11.2-36.48-27.2-48-48-11.52-20.8-17.28-45.12-17.28-72.96 0-27.84 5.6-52.16 16.8-72.96 11.52-20.8 27.52-36.8 48-48 20.479-11.2 43.999-16.8 70.559-16.8 25.92 0 48.96 5.44 69.12 16.32 20.16 10.88 35.84 26.4 47.04 46.56 11.52 20.16 17.28 43.68 17.28 70.56zm-84-21.6c0-14.08-4.8-25.28-14.4-33.6-9.6-8.32-21.6-12.48-36-12.48-13.76 0-25.44 4-35.04 12-9.28 8-15.04 19.36-17.28 34.08h102.72zm209.38-63.36c9.6-14.72 21.6-26.24 36-34.56 14.4-8.64 30.4-12.96 48-12.96v86.88h-22.56c-20.48 0-35.84 4.48-46.08 13.44-10.24 8.64-15.36 24-15.36 46.08V439h-82.08V171.16h82.08v44.64zm164.52-72.48c-14.4 0-26.24-4.16-35.52-12.48-8.96-8.64-13.44-19.2-13.44-31.68 0-12.8 4.48-23.36 13.44-31.68 9.28-8.64 21.12-12.96 35.52-12.96 14.08 0 25.6 4.32 34.56 12.96 9.28 8.32 13.92 18.88 13.92 31.68 0 12.48-4.64 23.04-13.92 31.68-8.96 8.32-20.48 12.48-34.56 12.48zm40.8 27.84V439h-82.08V171.16h82.08zm168.44 271.68c-23.36 0-44.16-4-62.4-12-18.24-8-32.64-18.88-43.2-32.64-10.56-14.08-16.48-29.76-17.76-47.04h81.12c.96 9.28 5.28 16.8 12.96 22.56 7.68 5.76 17.12 8.64 28.32 8.64 10.24 0 18.08-1.92 23.52-5.76 5.76-4.16 8.64-9.44 8.64-15.84 0-7.68-4-13.28-12-16.8-8-3.84-20.96-8-38.88-12.48-19.2-4.48-35.2-9.12-48-13.92-12.8-5.12-23.84-12.96-33.12-23.52-9.28-10.88-13.92-25.44-13.92-43.68 0-15.36 4.16-29.28 12.48-41.76 8.64-12.8 21.12-22.88 37.44-30.24 16.64-7.36 36.32-11.04 59.04-11.04 33.6 0 60 8.32 79.2 24.96 19.52 16.64 30.72 38.72 33.6 66.24h-75.84c-1.28-9.28-5.44-16.64-12.48-22.08-6.72-5.44-15.68-8.16-26.88-8.16-9.6 0-16.96 1.92-22.08 5.76-5.12 3.52-7.68 8.48-7.68 14.88 0 7.68 4 13.44 12 17.28 8.32 3.84 21.12 7.68 38.4 11.52 19.84 5.12 36 10.24 48.48 15.36 12.48 4.8 23.36 12.8 32.64 24 9.6 10.88 14.56 25.6 14.88 44.16 0 15.68-4.48 29.76-13.44 42.24-8.64 12.16-21.28 21.76-37.92 28.8-16.32 7.04-35.36 10.56-57.12 10.56zm322.37-3.84-81.6-112.32V439h-82.08V83.8h82.08v196.32l81.12-108.96h101.28l-111.36 134.4L2119.29 439h-101.76zm254.96 3.84c-26.24 0-49.92-5.6-71.04-16.8-20.8-11.2-37.28-27.2-49.44-48-11.84-20.8-17.76-45.12-17.76-72.96 0-27.52 6.08-51.68 18.24-72.48 12.16-21.12 28.8-37.28 49.92-48.48 21.12-11.2 44.8-16.8 71.04-16.8 26.24 0 49.92 5.6 71.04 16.8 21.12 11.2 37.76 27.36 49.92 48.48 12.16 20.8 18.24 44.96 18.24 72.48 0 27.52-6.24 51.84-18.72 72.96-12.16 20.8-28.96 36.8-50.4 48-21.12 11.2-44.8 16.8-71.04 16.8zm0-71.04c15.68 0 28.96-5.76 39.84-17.28 11.2-11.52 16.8-28 16.8-49.44 0-21.44-5.44-37.92-16.32-49.44-10.56-11.52-23.68-17.28-39.36-17.28-16 0-29.28 5.76-39.84 17.28-10.56 11.2-15.84 27.68-15.84 49.44 0 21.44 5.12 37.92 15.36 49.44 10.56 11.52 23.68 17.28 39.36 17.28zm265.79-162.72c8-12.48 19.04-22.56 33.12-30.24 14.08-7.68 30.56-11.52 49.44-11.52 22.08 0 42.08 5.6 60 16.8 17.92 11.2 32 27.2 42.24 48 10.56 20.8 15.84 44.96 15.84 72.48 0 27.52-5.28 51.84-15.84 72.96-10.24 20.8-24.32 36.96-42.24 48.48-17.92 11.2-37.92 16.8-60 16.8-18.56 0-35.04-3.84-49.44-11.52-14.08-7.68-25.12-17.6-33.12-29.76v165.12h-82.08V171.16h82.08v37.92zm117.12 95.52c0-20.48-5.76-36.48-17.28-48-11.2-11.84-25.12-17.76-41.76-17.76-16.32 0-30.24 5.92-41.76 17.76-11.2 11.84-16.8 28-16.8 48.48 0 20.48 5.6 36.64 16.8 48.48 11.52 11.84 25.44 17.76 41.76 17.76 16.32 0 30.24-5.92 41.76-17.76 11.52-12.16 17.28-28.48 17.28-48.96zm379.06-3.84c0 7.68-.48 15.68-1.44 24h-185.76c1.28 16.64 6.56 29.44 15.84 38.4 9.6 8.64 21.28 12.96 35.04 12.96 20.48 0 34.72-8.64 42.72-25.92h87.36c-4.48 17.6-12.64 33.44-24.48 47.52-11.52 14.08-26.08 25.12-43.68 33.12-17.6 8-37.28 12-59.04 12-26.24 0-49.6-5.6-70.08-16.8-20.48-11.2-36.48-27.2-48-48-11.52-20.8-17.28-45.12-17.28-72.96 0-27.84 5.6-52.16 16.8-72.96 11.52-20.8 27.52-36.8 48-48 20.48-11.2 44-16.8 70.56-16.8 25.92 0 48.96 5.44 69.12 16.32 20.16 10.88 35.84 26.4 47.04 46.56 11.52 20.16 17.28 43.68 17.28 70.56zm-84-21.6c0-14.08-4.8-25.28-14.4-33.6-9.6-8.32-21.6-12.48-36-12.48-13.76 0-25.44 4-35.04 12-9.28 8-15.04 19.36-17.28 34.08h102.72z"/></svg>