<?xml version="1.0" encoding="UTF-8" standalone="no" ?>
<!DOCTYPE svg PUBLIC "-//W3C//DTD SVG 1.1//EN" "http://www.w3.org/Graphics/SVG/1.1/DTD/svg11.dtd">
<svg xmlns="http://www.w3.org/2000/svg" xmlns:xlink="http://www.w3.org/1999/xlink" version="1.1" width="1080" height="1080" viewBox="0 0 1080 1080" xml:space="preserve">
<desc>Created with Fabric.js 5.2.4</desc>
<defs>
</defs>
<g transform="matrix(1 0 0 1 540 540)" id="ddf04d95-f585-4683-9083-a92dd7a1133b"  >
<rect style="stroke: none; stroke-width: 1; stroke-dasharray: none; stroke-linecap: butt; stroke-dashoffset: 0; stroke-linejoin: miter; stroke-miterlimit: 4; fill: rgb(255,255,255); fill-rule: nonzero; opacity: 1; visibility: hidden;" vector-effect="non-scaling-stroke"  x="-540" y="-540" rx="0" ry="0" width="1080" height="1080" />
</g>
<g transform="matrix(1 0 0 1 540 540)" id="7b0a2992-7b4e-4961-9b20-2f9c065650bf"  >
</g>
<g transform="matrix(1 0 0 1 1801.94 540)"  >
<g style="" vector-effect="non-scaling-stroke"   >
		<g transform="matrix(1 0 0 1 -1261.23 -7.26)"  >
<circle style="stroke: none; stroke-width: 1; stroke-dasharray: none; stroke-linecap: butt; stroke-dashoffset: 0; stroke-linejoin: miter; stroke-miterlimit: 4; fill: rgb(21,128,61); fill-rule: nonzero; opacity: 1;" vector-effect="non-scaling-stroke"  cx="0" cy="0" r="256" />
</g>
		<g transform="matrix(1 0 0 1 -1329.23 79.24)"  >
<path style="stroke: none; stroke-width: 1; stroke-dasharray: none; stroke-linecap: butt; stroke-dashoffset: 0; stroke-linejoin: miter; stroke-miterlimit: 4; fill: rgb(255,255,255); fill-rule: nonzero; opacity: 1;" vector-effect="non-scaling-stroke"  transform=" translate(-188, -397.5)" d="M 88 313 C 88 257.772 132.772 213 188 213 L 288 213 L 288 582 L 88 582 L 88 313 z" stroke-linecap="round" />
</g>
		<g transform="matrix(1 0 0 1 -1186.73 -5.26)"  >
<path style="stroke: none; stroke-width: 1; stroke-dasharray: none; stroke-linecap: butt; stroke-dashoffset: 0; stroke-linejoin: miter; stroke-miterlimit: 4; fill: rgb(255,255,255); fill-rule: nonzero; opacity: 1;" vector-effect="non-scaling-stroke"  transform=" translate(-330.5, -313)" d="M 218 213 L 343 213 C 398.228 213 443 257.772 443 313 C 443 368.228 398.228 413 343 413 L 218 413 L 218 213 z" stroke-linecap="round" />
</g>
		<g transform="matrix(1 0 0 1 -1178.23 -5.26)"  >
<circle style="stroke: none; stroke-width: 1; stroke-dasharray: none; stroke-linecap: butt; stroke-dashoffset: 0; stroke-linejoin: miter; stroke-miterlimit: 4; fill: rgb(21,128,61); fill-rule: nonzero; opacity: 1;" vector-effect="non-scaling-stroke"  cx="0" cy="0" r="75" />
</g>
		<g transform="matrix(1 0 0 1 -1240.96 40.05)"  >
<path style="stroke: none; stroke-width: 1; stroke-dasharray: none; stroke-linecap: butt; stroke-dashoffset: 0; stroke-linejoin: miter; stroke-miterlimit: 4; fill: rgb(21,128,61); fill-rule: nonzero; opacity: 1;" vector-effect="non-scaling-stroke"  transform=" translate(-276.27, -358.31)" d="M 256.478 377.112 L 269.357 339.509 L 296.069 373.589 L 256.478 377.112 z" stroke-linecap="round" />
</g>
		<g transform="matrix(1 0 0 1 -1207.23 -2.26)"  >
<circle style="stroke: none; stroke-width: 1; stroke-dasharray: none; stroke-linecap: butt; stroke-dashoffset: 0; stroke-linejoin: miter; stroke-miterlimit: 4; fill: rgb(255,255,255); fill-rule: nonzero; opacity: 1;" vector-effect="non-scaling-stroke"  cx="0" cy="0" r="10" />
</g>
		<g transform="matrix(1 0 0 1 -1174.23 -2.26)"  >
<circle style="stroke: none; stroke-width: 1; stroke-dasharray: none; stroke-linecap: butt; stroke-dashoffset: 0; stroke-linejoin: miter; stroke-miterlimit: 4; fill: rgb(255,255,255); fill-rule: nonzero; opacity: 1;" vector-effect="non-scaling-stroke"  cx="0" cy="0" r="10" />
</g>
		<g transform="matrix(1 0 0 1 -1141.23 -2.26)"  >
<circle style="stroke: none; stroke-width: 1; stroke-dasharray: none; stroke-linecap: butt; stroke-dashoffset: 0; stroke-linejoin: miter; stroke-miterlimit: 4; fill: rgb(255,255,255); fill-rule: nonzero; opacity: 1;" vector-effect="non-scaling-stroke"  cx="0" cy="0" r="10" />
</g>
		<g transform="matrix(1 0 0 1 308.88 -7.66)"  >
<path style="stroke: none; stroke-width: 1; stroke-dasharray: none; stroke-linecap: butt; stroke-dashoffset: 0; stroke-linejoin: miter; stroke-miterlimit: 4; fill: rgb(252,252,252); fill-rule: nonzero; opacity: 1;" vector-effect="non-scaling-stroke"  transform=" translate(-1826.11, -310.6)" d="M 699.84 209.08 C 707.84 196.60000000000002 718.88 186.52 732.96 178.84 C 747.0400000000001 171.16 763.52 167.32 782.4000000000001 167.32 C 804.4800000000001 167.32 824.4800000000001 172.92 842.4000000000001 184.12 C 860.32 195.32 874.4000000000001 211.32 884.6400000000001 232.12 C 895.2 252.92000000000002 900.4800000000001 277.08 900.4800000000001 304.6 C 900.4800000000001 332.12 895.2000000000002 356.44000000000005 884.6400000000001 377.56 C 874.4000000000001 398.36 860.32 414.52 842.4000000000001 426.04 C 824.4800000000001 437.24 804.4800000000001 442.84000000000003 782.4000000000001 442.84000000000003 C 763.8400000000001 442.84000000000003 747.3600000000001 439.00000000000006 732.96 431.32000000000005 C 718.88 423.64000000000004 707.84 413.72 699.84 401.56000000000006 L 699.84 566.6800000000001 L 617.76 566.6800000000001 L 617.76 171.16 L 699.84 171.16 L 699.84 209.07999999999998 z M 816.96 304.6 C 816.96 284.12 811.2 268.12 799.6800000000001 256.6 C 788.48 244.76000000000002 774.5600000000001 238.84000000000003 757.9200000000001 238.84000000000003 C 741.6 238.84000000000003 727.6800000000001 244.76000000000002 716.1600000000001 256.6 C 704.96 268.44 699.3600000000001 284.6 699.3600000000001 305.08000000000004 C 699.3600000000001 325.56000000000006 704.9600000000002 341.72 716.1600000000001 353.56000000000006 C 727.6800000000001 365.40000000000003 741.6000000000001 371.32000000000005 757.9200000000001 371.32000000000005 C 774.2400000000001 371.32000000000005 788.1600000000001 365.40000000000003 799.6800000000001 353.56000000000006 C 811.2 341.40000000000003 816.96 325.08000000000004 816.96 304.6000000000001 z M 1196.02 300.76000000000005 C 1196.02 308.44000000000005 1195.54 316.44000000000005 1194.58 324.76000000000005 L 1008.8199999999999 324.76000000000005 C 1010.0999999999999 341.40000000000003 1015.3799999999999 354.20000000000005 1024.6599999999999 363.16 C 1034.2599999999998 371.8 1045.9399999999998 376.12 1059.6999999999998 376.12 C 1080.1799999999998 376.12 1094.4199999999998 367.48 1102.4199999999998 350.2 L 1189.7799999999997 350.2 C 1185.2999999999997 367.8 1177.1399999999996 383.64 1165.2999999999997 397.71999999999997 C 1153.7799999999997 411.79999999999995 1139.2199999999998 422.84 1121.6199999999997 430.84 C 1104.0199999999998 438.84 1084.3399999999997 442.84 1062.5799999999997 442.84 C 1036.3399999999997 442.84 1012.9799999999997 437.23999999999995 992.5009999999997 426.03999999999996 C 972.0209999999997 414.84 956.0209999999997 398.84 944.5009999999997 378.03999999999996 C 932.9809999999998 357.23999999999995 927.2209999999998 332.91999999999996 927.2209999999998 305.08 C 927.2209999999998 277.24 932.8209999999998 252.92 944.0209999999997 232.12 C 955.5409999999997 211.32 971.5409999999997 195.32 992.0209999999997 184.12 C 1012.4999999999998 172.92000000000002 1036.0199999999998 167.32 1062.5799999999997 167.32 C 1088.4999999999998 167.32 1111.5399999999997 172.76 1131.6999999999998 183.64 C 1151.86 194.51999999999998 1167.5399999999997 210.04 1178.7399999999998 230.2 C 1190.2599999999998 250.35999999999999 1196.0199999999998 273.88 1196.0199999999998 300.76 z M 1112.02 279.16 C 1112.02 265.08000000000004 1107.22 253.88000000000002 1097.62 245.56000000000003 C 1088.02 237.24000000000004 1076.02 233.08000000000004 1061.62 233.08000000000004 C 1047.86 233.08000000000004 1036.1799999999998 237.08000000000004 1026.58 245.08000000000004 C 1017.3 253.08000000000004 1011.54 264.44000000000005 1009.3 279.16 L 1112.02 279.16 z M 1321.4 215.8 C 1331 201.08 1343 189.56 1357.4 181.24 C 1371.8000000000002 172.60000000000002 1387.8000000000002 168.28 1405.4 168.28 L 1405.4 255.16 L 1382.8400000000001 255.16 C 1362.3600000000001 255.16 1347.0000000000002 259.64 1336.7600000000002 268.6 C 1326.5200000000002 277.24 1321.4000000000003 292.6 1321.4000000000003 314.68 L 1321.4000000000003 439 L 1239.3200000000004 439 L 1239.3200000000004 171.16 L 1321.4000000000003 171.16 L 1321.4000000000003 215.8 z M 1485.92 143.32 C 1471.52 143.32 1459.68 139.16 1450.4 130.84 C 1441.44 122.2 1436.96 111.64 1436.96 99.16 C 1436.96 86.36 1441.44 75.8 1450.4 67.47999999999999 C 1459.68 58.83999999999999 1471.52 54.51999999999999 1485.92 54.51999999999999 C 1500 54.51999999999999 1511.52 58.83999999999999 1520.48 67.47999999999999 C 1529.76 75.79999999999998 1534.4 86.35999999999999 1534.4 99.16 C 1534.4 111.64 1529.76 122.19999999999999 1520.48 130.84 C 1511.52 139.16 1500 143.32 1485.92 143.32 z M 1526.72 171.16 L 1526.72 439 L 1444.64 439 L 1444.64 171.16 L 1526.72 171.16 z M 1695.16 442.84000000000003 C 1671.8000000000002 442.84000000000003 1651 438.84000000000003 1632.76 430.84000000000003 C 1614.52 422.84000000000003 1600.12 411.96000000000004 1589.56 398.20000000000005 C 1579 384.12000000000006 1573.08 368.44000000000005 1571.8 351.16 L 1652.92 351.16 C 1653.88 360.44 1658.2 367.96000000000004 1665.88 373.72 C 1673.5600000000002 379.48 1683 382.36 1694.2 382.36 C 1704.44 382.36 1712.28 380.44 1717.72 376.6 C 1723.48 372.44 1726.3600000000001 367.16 1726.3600000000001 360.76000000000005 C 1726.3600000000001 353.08000000000004 1722.3600000000001 347.4800000000001 1714.3600000000001 343.96000000000004 C 1706.3600000000001 340.12000000000006 1693.4 335.96000000000004 1675.48 331.48 C 1656.28 327 1640.28 322.36 1627.48 317.56 C 1614.68 312.44 1603.64 304.6 1594.3600000000001 294.04 C 1585.0800000000002 283.16 1580.44 268.6 1580.44 250.36 C 1580.44 235 1584.6000000000001 221.08 1592.92 208.60000000000002 C 1601.5600000000002 195.8 1614.04 185.72000000000003 1630.3600000000001 178.36 C 1647.0000000000002 171 1666.68 167.32000000000002 1689.4 167.32000000000002 C 1723 167.32000000000002 1749.4 175.64000000000001 1768.6000000000001 192.28000000000003 C 1788.1200000000001 208.92000000000002 1799.3200000000002 231.00000000000003 1802.2 258.52000000000004 L 1726.3600000000001 258.52000000000004 C 1725.0800000000002 249.24000000000004 1720.92 241.88000000000005 1713.88 236.44000000000005 C 1707.16 231.00000000000006 1698.2 228.28000000000006 1687 228.28000000000006 C 1677.4 228.28000000000006 1670.04 230.20000000000005 1664.92 234.04000000000005 C 1659.8000000000002 237.56000000000006 1657.24 242.52000000000004 1657.24 248.92000000000004 C 1657.24 256.6 1661.24 262.36000000000007 1669.24 266.20000000000005 C 1677.56 270.04 1690.36 273.88000000000005 1707.64 277.72 C 1727.48 282.84000000000003 1743.64 287.96000000000004 1756.1200000000001 293.08000000000004 C 1768.6000000000001 297.88000000000005 1779.48 305.88000000000005 1788.7600000000002 317.08000000000004 C 1798.3600000000001 327.96000000000004 1803.3200000000002 342.68000000000006 1803.6400000000003 361.24 C 1803.6400000000003 376.92 1799.1600000000003 391 1790.2000000000003 403.48 C 1781.5600000000002 415.64000000000004 1768.9200000000003 425.24 1752.2800000000002 432.28000000000003 C 1735.9600000000003 439.32000000000005 1716.9200000000003 442.84000000000003 1695.1600000000003 442.84000000000003 z M 2017.5300000000002 439.00000000000006 L 1935.9300000000003 326.68000000000006 L 1935.9300000000003 439 L 1853.8500000000004 439 L 1853.8500000000004 83.8 L 1935.9300000000003 83.8 L 1935.9300000000003 280.12 L 2017.0500000000002 171.16000000000003 L 2118.3300000000004 171.16000000000003 L 2006.9700000000005 305.56000000000006 L 2119.29 439 L 2017.53 439 z M 2272.4900000000002 442.84000000000003 C 2246.2500000000005 442.84000000000003 2222.57 437.24 2201.4500000000003 426.04 C 2180.65 414.84000000000003 2164.17 398.84000000000003 2152.01 378.04 C 2140.17 357.24 2134.25 332.92 2134.25 305.08000000000004 C 2134.25 277.56000000000006 2140.33 253.40000000000003 2152.49 232.60000000000002 C 2164.6499999999996 211.48000000000002 2181.29 195.32000000000002 2202.41 184.12000000000003 C 2223.5299999999997 172.92000000000004 2247.21 167.32000000000002 2273.45 167.32000000000002 C 2299.6899999999996 167.32000000000002 2323.37 172.92000000000002 2344.49 184.12000000000003 C 2365.6099999999997 195.32000000000002 2382.25 211.48000000000002 2394.41 232.60000000000002 C 2406.5699999999997 253.40000000000003 2412.6499999999996 277.56 2412.6499999999996 305.08000000000004 C 2412.6499999999996 332.6 2406.41 356.9200000000001 2393.93 378.04 C 2381.77 398.84000000000003 2364.97 414.84000000000003 2343.5299999999997 426.04 C 2322.41 437.24 2298.7299999999996 442.84000000000003 2272.49 442.84000000000003 z M 2272.4900000000002 371.8 C 2288.17 371.8 2301.4500000000003 366.04 2312.3300000000004 354.52 C 2323.53 343 2329.1300000000006 326.52 2329.1300000000006 305.08 C 2329.1300000000006 283.64 2323.6900000000005 267.15999999999997 2312.8100000000004 255.64 C 2302.2500000000005 244.11999999999998 2289.1300000000006 238.35999999999999 2273.4500000000003 238.35999999999999 C 2257.4500000000003 238.35999999999999 2244.17 244.11999999999998 2233.61 255.64 C 2223.05 266.84 2217.77 283.32 2217.77 305.08 C 2217.77 326.52 2222.89 343 2233.13 354.52 C 2243.69 366.03999999999996 2256.81 371.79999999999995 2272.4900000000002 371.79999999999995 z M 2538.28 209.08 C 2546.28 196.60000000000002 2557.32 186.52 2571.4 178.84 C 2585.48 171.16 2601.96 167.32 2620.84 167.32 C 2642.92 167.32 2662.92 172.92 2680.84 184.12 C 2698.76 195.32 2712.84 211.32 2723.08 232.12 C 2733.64 252.92000000000002 2738.92 277.08 2738.92 304.6 C 2738.92 332.12 2733.64 356.44000000000005 2723.08 377.56 C 2712.84 398.36 2698.7599999999998 414.52 2680.84 426.04 C 2662.92 437.24 2642.92 442.84000000000003 2620.84 442.84000000000003 C 2602.28 442.84000000000003 2585.8 439.00000000000006 2571.4 431.32000000000005 C 2557.32 423.64000000000004 2546.28 413.72 2538.28 401.56000000000006 L 2538.28 566.6800000000001 L 2456.2000000000003 566.6800000000001 L 2456.2000000000003 171.16 L 2538.28 171.16 L 2538.28 209.07999999999998 z M 2655.4 304.6 C 2655.4 284.12 2649.64 268.12 2638.12 256.6 C 2626.92 244.76000000000002 2613 238.84000000000003 2596.3599999999997 238.84000000000003 C 2580.0399999999995 238.84000000000003 2566.12 244.76000000000002 2554.5999999999995 256.6 C 2543.3999999999996 268.44 2537.7999999999993 284.6 2537.7999999999993 305.08000000000004 C 2537.7999999999993 325.56000000000006 2543.399999999999 341.72 2554.5999999999995 353.56000000000006 C 2566.1199999999994 365.40000000000003 2580.0399999999995 371.32000000000005 2596.3599999999997 371.32000000000005 C 2612.68 371.32000000000005 2626.5999999999995 365.40000000000003 2638.12 353.56000000000006 C 2649.64 341.40000000000003 2655.4 325.08000000000004 2655.4 304.6000000000001 z M 3034.46 300.76000000000005 C 3034.46 308.44000000000005 3033.98 316.44000000000005 3033.02 324.76000000000005 L 2847.26 324.76000000000005 C 2848.5400000000004 341.40000000000003 2853.82 354.20000000000005 2863.1000000000004 363.16 C 2872.7000000000003 371.8 2884.3800000000006 376.12 2898.1400000000003 376.12 C 2918.6200000000003 376.12 2932.86 367.48 2940.86 350.2 L 3028.2200000000003 350.2 C 3023.7400000000002 367.8 3015.5800000000004 383.64 3003.7400000000002 397.71999999999997 C 2992.2200000000003 411.79999999999995 2977.6600000000003 422.84 2960.0600000000004 430.84 C 2942.4600000000005 438.84 2922.78 442.84 2901.0200000000004 442.84 C 2874.7800000000007 442.84 2851.4200000000005 437.23999999999995 2830.9400000000005 426.03999999999996 C 2810.4600000000005 414.84 2794.4600000000005 398.84 2782.9400000000005 378.03999999999996 C 2771.4200000000005 357.23999999999995 2765.6600000000003 332.91999999999996 2765.6600000000003 305.08 C 2765.6600000000003 277.24 2771.26 252.92 2782.4600000000005 232.12 C 2793.9800000000005 211.32 2809.9800000000005 195.32 2830.4600000000005 184.12 C 2850.9400000000005 172.92000000000002 2874.4600000000005 167.32 2901.0200000000004 167.32 C 2926.9400000000005 167.32 2949.9800000000005 172.76 2970.1400000000003 183.64 C 2990.3 194.51999999999998 3005.9800000000005 210.04 3017.1800000000003 230.2 C 3028.7000000000003 250.35999999999999 3034.4600000000005 273.88 3034.4600000000005 300.76 z M 2950.46 279.16 C 2950.46 265.08000000000004 2945.66 253.88000000000002 2936.06 245.56000000000003 C 2926.46 237.24000000000004 2914.46 233.08000000000004 2900.06 233.08000000000004 C 2886.2999999999997 233.08000000000004 2874.62 237.08000000000004 2865.02 245.08000000000004 C 2855.74 253.08000000000004 2849.98 264.44000000000005 2847.74 279.16 L 2950.4599999999996 279.16 z" stroke-linecap="round" />
</g>
</g>
</g>
</svg>